<?xml version="1.0" encoding="UTF-8"?>
<svg width="289px" height="60px" viewBox="0 0 289 60" version="1.1" xmlns="http://www.w3.org/2000/svg" xmlns:xlink="http://www.w3.org/1999/xlink">
    <!-- Generator: Sketch 55.2 (78181) - https://sketchapp.com -->
    <title>logo 2</title>
    <desc>Created with Sketch.</desc>
    <defs>
        <linearGradient x1="100%" y1="50%" x2="-2.22044605e-14%" y2="50%" id="linearGradient-1">
            <stop stop-color="#1472C6" offset="0%"></stop>
            <stop stop-color="#22B6F5" offset="100%"></stop>
        </linearGradient>
    </defs>
    <g id="Theme" stroke="none" stroke-width="1" fill="none" fill-rule="evenodd">
        <g id="login" transform="translate(-746.000000, -282.000000)" fill-rule="nonzero">
            <g id="logo-2" transform="translate(746.000000, 282.000000)">
                <path d="M251.297295,12.6668157 C251.827078,12.6668157 252.289027,12.845118 252.68572,13.1999913 C253.083272,13.5565958 253.347734,13.9106036 253.479965,14.2663426 L262.275899,34.8663094 L271.071834,14.2663426 C271.204065,13.9106036 271.468527,13.5565958 271.86522,13.1999913 C272.261913,12.845118 272.72558,12.6668157 273.254504,12.6668157 L278.214023,12.6668157 C278.699156,12.6668157 279.117315,12.845118 279.471076,13.1999913 C279.823978,13.5565958 280,13.9781161 280,14.467149 C280,14.6445857 279.977675,14.7995182 279.934743,14.9328121 L261.350283,58.4004732 C261.218052,58.7562121 260.952731,59.1110855 260.556038,59.4668244 C260.159345,59.8225633 259.697396,60 259.167613,60 L254.207235,60 C253.722102,60 253.302226,59.8225633 252.951041,59.4668244 C252.59728,59.1110855 252.422117,58.6886996 252.422117,58.1996668 C252.422117,58.0222301 252.443583,57.8672976 252.487374,57.7340036 L257.712214,45.4675024 L244.617056,14.9328121 C244.573265,14.7995182 244.551799,14.6445857 244.551799,14.467149 C244.551799,13.9781161 244.726962,13.5565958 245.080723,13.1999913 C245.431908,12.845118 245.851784,12.6668157 246.336917,12.6668157 L251.297295,12.6668157 Z M187.608682,12 C189.857467,12 191.884723,12.3003441 193.693024,12.9001666 C195.500467,13.4999892 197.05461,14.3776516 198.355453,15.533154 C199.655438,16.6895219 200.659191,18.1445027 201.365854,19.8998276 C202.069941,21.6568836 202.423702,23.6666787 202.423702,25.9335406 L202.423702,45.5338031 C202.423702,46.0237015 202.245963,46.4443563 201.894778,46.8000952 C201.541017,47.1575652 201.122,47.3341364 200.637725,47.3341364 L195.610373,47.3341364 C195.12524,47.3341364 194.707081,47.1575652 194.355037,46.8000952 C194.001277,46.4443563 193.825255,46.0237015 193.825255,45.5338031 L193.825255,43.3335882 C192.899638,44.62325 191.566166,45.7233574 189.82398,46.6339106 C188.082653,47.5444638 185.867355,47.9997403 183.178087,47.9997403 C181.281345,47.9997403 179.58295,47.7435391 178.084619,47.2328676 C176.585429,46.7230617 175.329235,46.0011973 174.315178,45.0672745 C173.300262,44.1324861 172.518039,43.0341097 171.967649,41.7669521 C171.4164,40.50066 171.140776,39.1123261 171.140776,37.6002193 C171.140776,34.5344595 172.220948,32.1334382 174.382152,30.3997519 C176.540779,28.6669311 179.430112,27.4897902 183.045856,26.8665979 L193.825255,24.9996177 C193.825255,23.1776459 193.231074,21.8897152 192.039278,21.133229 C190.8492,20.3784739 189.372334,20.0002308 187.608682,20.0002308 C186.507044,20.0002308 185.646684,20.1560289 185.02932,20.4667595 C184.411097,20.7774901 183.816058,21.1998759 183.243343,21.7330516 C182.846651,22.089656 182.482586,22.3328741 182.152867,22.4670336 C181.821431,22.5994619 181.458225,22.6669744 181.060674,22.6669744 L174.911076,22.6669744 C174.468875,22.6669744 174.095365,22.5336805 173.786254,22.2662272 C173.478001,21.9996394 173.366378,21.644766 173.456535,21.1998759 C173.631698,20.2668186 174.039553,19.2662488 174.679242,18.1998976 C175.318072,17.1335464 176.221364,16.1329765 177.390835,15.1999192 C178.558589,14.2668619 179.991664,13.4999892 181.690059,12.9001666 C183.385878,12.3003441 185.360756,12 187.608682,12 Z M152.822667,12 C155.335055,12 157.428425,12.4232514 159.105354,13.2662921 C160.779707,14.1110638 162.136363,15.2449275 163.172744,16.6661521 C164.208267,18.0891078 164.935538,19.7448951 165.355414,21.6335139 C165.773573,23.5229982 165.983082,25.5111547 165.983082,27.5997144 L165.983082,45.5338031 C165.983082,46.0237015 165.806201,46.4443563 165.453299,46.8000952 C165.101256,47.1575652 164.682238,47.3341364 164.197964,47.3341364 L159.17147,47.3341364 C158.685478,47.3341364 158.267319,47.1575652 157.914417,46.8000952 C157.560656,46.4443563 157.385493,46.0237015 157.385493,45.5338031 L157.385493,27.9338147 C157.385493,24.9113321 156.812779,22.8002683 155.666491,21.5997576 C154.519344,20.399247 152.910248,19.80029 150.838343,19.80029 C149.074692,19.80029 147.564339,20.3784739 146.307286,21.5339762 C145.050234,22.6894786 144.377917,24.7113913 144.291194,27.5997144 L144.291194,45.5338031 C144.291194,46.0237015 144.114313,46.4443563 143.760553,46.8000952 C143.40765,47.1575652 142.99035,47.3341364 142.505217,47.3341364 L137.478723,47.3341364 C136.992732,47.3341364 136.574573,47.1575652 136.22167,46.8000952 C135.86791,46.4443563 135.692747,46.0237015 135.692747,45.5338031 L135.692747,27.9338147 C135.692747,24.9113321 135.120032,22.8002683 133.973744,21.5997576 C132.826598,20.399247 131.216643,19.80029 129.144738,19.80029 C127.337296,19.80029 125.794315,20.4113646 124.514937,21.6335139 C123.237277,22.8565287 122.598447,24.9563405 122.598447,27.9338147 L122.598447,45.5338031 C122.598447,46.0237015 122.420708,46.4443563 122.069523,46.8000952 C121.715762,47.1575652 121.296745,47.3341364 120.81247,47.3341364 L115.785977,47.3341364 C115.299985,47.3341364 114.881826,47.1575652 114.529782,46.8000952 C114.175163,46.4443563 114,46.0237015 114,45.5338031 L114,14.4668027 C114,13.9786355 114.175163,13.5562496 114.529782,13.2005107 C114.881826,12.8447717 115.299985,12.6664695 115.785977,12.6664695 L120.81247,12.6664695 C121.296745,12.6664695 121.715762,12.8447717 122.069523,13.2005107 C122.420708,13.5562496 122.598447,13.9786355 122.598447,14.4668027 L122.598447,15.9996826 C123.656295,14.7108864 124.934814,13.7232997 126.434003,13.0334605 C127.932335,12.3444868 129.49764,12 131.12992,12 C133.90677,12 136.17788,12.5227891 137.940673,13.5666361 C139.704325,14.6113487 141.093609,15.978044 142.108524,17.666722 C142.68038,16.7778074 143.387043,15.978044 144.225078,15.2665662 C145.062255,14.5559539 145.953526,13.9569968 146.903184,13.4670985 C147.850267,12.9780657 148.831696,12.6110746 149.845753,12.3661255 C150.858951,12.1229074 151.851542,12 152.822667,12 Z M214.394725,12.6670754 C214.966581,12.6670754 215.485201,12.7441089 215.94801,12.9007725 C216.411677,13.0565706 216.863323,13.3993263 217.303806,13.9325019 L224.776573,23.2665373 L232.184941,13.9325019 C232.624566,13.3993263 233.07793,13.0565706 233.540738,12.9007725 C234.004405,12.7441089 234.521308,12.6670754 235.094881,12.6670754 L240.18749,12.6670754 C240.671765,12.6670754 241.07962,12.8445121 241.411056,13.200251 C241.741633,13.5568555 241.907351,14.0000144 241.907351,14.53319 C241.907351,14.8897945 241.817194,15.1996596 241.642031,15.4662474 L230.135361,29.9329636 L241.907351,44.5338392 C242.082515,44.800427 242.170955,45.1120231 242.170955,45.4677621 C242.170955,46.0009377 242.006095,46.4449622 241.674659,46.8007011 C241.344941,47.1573056 240.936227,47.3338767 240.451952,47.3338767 L235.359343,47.3338767 C234.786628,47.3338767 234.268008,47.2559777 233.8052,47.0993141 C233.342391,46.9452471 232.889887,46.5998947 232.449403,46.0667191 L224.579085,36.3336675 L216.774883,46.0667191 C216.33354,46.5998947 215.881894,46.9452471 215.419086,47.0993141 C214.956278,47.2559777 214.436799,47.3338767 213.864943,47.3338767 L208.772334,47.3338767 C208.2872,47.3338767 207.879345,47.1573056 207.549626,46.8007011 C207.21819,46.4449622 207.053331,46.0009377 207.053331,45.4677621 C207.053331,45.1120231 207.140913,44.800427 207.316934,44.5338392 L219.222014,29.6663757 L207.846717,15.4662474 C207.670695,15.1996596 207.582255,14.8897945 207.582255,14.53319 C207.582255,14.0000144 207.747114,13.5568555 208.077692,13.200251 C208.409128,12.8445121 208.816983,12.6670754 209.301257,12.6670754 L214.394725,12.6670754 Z M193.825255,31.8668504 L184.831832,33.4672427 C183.022672,33.7788389 181.723546,34.2332499 180.928443,34.8330725 C180.135057,35.4346261 179.738364,36.2447761 179.738364,37.2669845 C179.738364,38.2000418 180.212335,38.8898811 181.160277,39.3339056 C182.109077,39.77793 183.221019,40.0003751 184.500396,40.0003751 C185.998728,40.0003751 187.333058,39.7900477 188.501671,39.3676618 C189.669425,38.9452759 190.651712,38.3783441 191.445098,37.6677318 C192.238483,36.9553884 192.833523,36.1564905 193.231074,35.2667104 C193.627767,34.3786614 193.825255,33.4672427 193.825255,32.5333199 L193.825255,31.8668504 Z" id="Fill-38" fill="#2A2B2B"></path>
                <path d="M88.6998813,32.3999286 C88.7436776,33.7787042 88.9746819,35.1566143 89.3946116,36.5327933 C89.8136825,37.911569 90.4525939,39.166575 91.3130633,40.3004081 C92.1726739,41.4342411 93.2632888,42.3568869 94.5866255,43.0666145 C95.9099621,43.7780731 97.5192632,44.1329369 99.4153873,44.1329369 C101.354449,44.1329369 102.975773,43.8005767 104.277641,43.1332596 C105.576932,42.4676737 106.635773,41.5675314 107.452446,40.4328328 C108.266543,39.2998653 108.862517,37.9894659 109.237791,36.4999035 C109.612207,35.0112067 109.843211,33.4671165 109.932522,31.8667674 C109.975459,30.6230131 109.975459,29.3783933 109.932522,28.1337735 C109.843211,26.5334245 109.612207,24.9997205 109.237791,23.5335272 C108.862517,22.067334 108.266543,20.7673208 107.452446,19.6334877 C106.635773,18.5005202 105.576932,17.5908572 104.277641,16.9001711 C102.975773,16.2120816 101.354449,15.8667386 99.4153873,15.8667386 C97.5630595,15.8667386 95.976086,16.2120816 94.6536081,16.9001711 C93.3302715,17.5908572 92.2267753,18.4667649 91.3456958,19.5330873 C90.4637577,20.6011407 89.8136825,21.8120051 89.3946116,23.1665462 C88.9746819,24.5236837 88.7436776,25.866973 88.6998813,27.1998759 C88.6552262,27.8663274 88.6337574,28.7335799 88.6337574,29.7999023 C88.6337574,30.8670902 88.6552262,31.7326116 88.6998813,32.3999286 L88.6998813,32.3999286 Z M87.2451556,0 C88.2146865,0 88.6998813,0.48988512 88.6998813,1.46792432 L88.6998813,17.2671522 C89.8008012,15.8009589 91.2349169,14.5563391 92.999652,13.5332928 C94.7626696,12.5119776 97.0340683,12.0013199 99.8112719,12.0013199 C102.368635,12.0013199 104.541277,12.4782222 106.326623,13.4337579 C108.112826,14.390159 109.557247,15.6339133 110.659026,17.1667517 C111.760804,18.7004557 112.566314,20.4228433 113.074695,22.3339146 C113.581358,24.2458514 113.877628,26.1794262 113.967797,28.1337735 C114.010734,29.3783933 114.010734,30.6230131 113.967797,31.8667674 C113.877628,33.8228458 113.581358,35.7564206 113.074695,37.6674919 C112.566314,39.5776977 111.760804,41.3000853 110.659026,42.8329237 C109.557247,44.3666277 108.112826,45.612113 106.326623,46.5667831 C104.541277,47.5214532 102.368635,47.999221 99.8112719,47.999221 C97.0340683,47.999221 94.7626696,47.4998152 92.999652,46.5001379 C91.2349169,45.5004607 89.8008012,44.2445891 88.6998813,42.7333888 L88.6998813,45.8674418 C88.6998813,46.8437499 88.2146865,47.3336351 87.2451556,47.3336351 L86.1201906,47.3336351 C85.149801,47.3336351 84.6654649,46.8437499 84.6654649,45.8674418 L84.6654649,1.46792432 C84.6654649,0.48988512 85.149801,0 86.1201906,0 L87.2451556,0 Z M63.8968082,12.0012334 C68.5271983,12.0012334 72.1202162,13.52282 74.6784381,16.5677243 C77.2349425,19.6117632 78.513624,23.8225248 78.513624,29.2008749 L78.513624,30.1996866 C78.513624,30.6454301 78.3702125,31.0011594 78.0842481,31.26774 C77.7965662,31.5334551 77.4333141,31.6667454 76.9927744,31.6667454 L53.4457977,31.6667454 L53.4457977,32.3340624 C53.4887353,33.8443973 53.7652534,35.3114561 54.2727758,36.7343733 C54.7785806,38.1572905 55.4733109,39.411431 56.3561078,40.5011225 C57.2371873,41.5899484 58.3174971,42.4675871 59.5970375,43.1340386 C60.875719,43.8004901 62.3089759,44.1328503 63.8968082,44.1328503 C65.3077375,44.1328503 66.5426227,43.956284 67.600605,43.5996891 C68.6585874,43.2448254 69.5619944,42.8328372 70.3125435,42.3671866 C71.0622339,41.8998051 71.6685127,41.4237683 72.13138,40.9338832 C72.5942473,40.4448636 72.913703,40.0666307 73.0906059,39.8000501 C73.4873492,39.2236129 73.7947824,38.8782698 74.0163404,38.7666176 C74.2370396,38.6566963 74.5891279,38.6004374 75.0751815,38.6004374 L76.1331638,38.6004374 C76.5299072,38.6004374 76.8708317,38.7233415 77.1585135,38.9674185 C77.4444779,39.2114956 77.5655619,39.5334695 77.5226243,39.9333404 C77.4771105,40.5565158 77.136186,41.3328886 76.4972746,42.2667862 C75.8575044,43.1998182 74.9532387,44.0895743 73.7853361,44.9343232 C72.6165748,45.7782065 71.1944817,46.5000514 69.5190568,47.0998577 C67.8427731,47.7005296 65.9689765,48 63.8968082,48 C61.7799848,48 59.861533,47.6330189 58.141453,46.8999223 C56.4222317,46.1659601 54.9443197,45.1230068 53.7102933,43.7676003 C52.4754081,42.4113282 51.4947134,40.7902066 50.7664918,38.8999079 C50.039129,37.0113401 49.5865667,34.9340887 49.4105226,32.6664226 C49.3667262,31.9999711 49.3452574,31.1110807 49.3452574,30.0006167 C49.3452574,28.8892872 49.3667262,28.0012622 49.4105226,27.3330797 C49.5865667,25.0671446 50.039129,22.9898932 50.7664918,21.10046 C51.4947134,19.2118923 52.4633855,17.6011569 53.6776607,16.2665229 C54.8893596,14.9336199 56.3561078,13.8898011 58.0761879,13.1333354 C59.7962679,12.3794662 61.7353297,12.0012334 63.8968082,12.0012334 Z M2.57969067,12.6673386 C3.02023039,12.6673386 3.36201364,12.7902427 3.60504042,13.0343197 C3.84720845,13.2783968 3.99147877,13.489584 4.03441637,13.6670159 L12.1702317,41.400053 L20.835897,14.0002416 C20.9234897,13.733661 21.1012514,13.4454424 21.3648882,13.1338547 C21.6302425,12.8231325 22.0475959,12.6673386 22.6212422,12.6673386 L23.9445789,12.6673386 C24.5173664,12.6673386 24.9364373,12.8231325 25.2009329,13.1338547 C25.4662872,13.4454424 25.6423313,13.733661 25.729924,14.0002416 L34.3947306,41.400053 L42.5314047,13.6670159 C42.5743423,13.489584 42.7177539,13.2783968 42.9616394,13.0343197 C43.2029487,12.7902427 43.5447319,12.6673386 43.9861304,12.6673386 L45.2433432,12.6673386 C45.5954314,12.6673386 45.9045821,12.8006289 46.1690777,13.0672095 C46.434432,13.3337901 46.5658211,13.6453778 46.5658211,14.0002416 C46.5658211,14.2235461 46.521166,14.4676232 46.434432,14.7342038 L37.106669,45.6670736 C36.8859698,46.2452419 36.632638,46.6667508 36.3466736,46.9341969 C36.0589917,47.199912 35.6072882,47.3332023 34.9907044,47.3332023 L33.8665982,47.3332023 C32.6755093,47.3332023 31.9249602,46.7784031 31.617527,45.6670736 L23.2833399,19.4002297 L14.9482941,45.6670736 C14.6400022,46.7784031 13.8903118,47.3332023 12.7000817,47.3332023 L11.5759754,47.3332023 C10.9576741,47.3332023 10.5068293,47.199912 10.2200062,46.9341969 C9.93232432,46.6667508 9.67985127,46.2452419 9.45915204,45.6670736 L0.133106542,14.7342038 C0.0437963462,14.4676232 0,14.2235461 0,14.0002416 C0,13.6453778 0.133106542,13.3337901 0.396743372,13.0672095 C0.662097705,12.8006289 0.96953088,12.6673386 1.32247791,12.6673386 L2.57969067,12.6673386 Z M63.8968082,15.866652 C62.2205245,15.866652 60.7434712,16.1678535 59.4647897,16.7667943 C58.1852494,17.3674661 57.0937757,18.2000977 56.1903687,19.2664201 C55.2869617,20.3344735 54.6033952,21.5894796 54.140528,23.0331693 C53.6776607,24.4777245 53.4457977,26.0226803 53.4457977,27.667171 L53.4457977,27.9337515 L74.4792077,27.9337515 L74.4792077,27.667171 C74.4792077,26.0226803 74.2370396,24.4777245 73.7518448,23.0331693 C73.26665,21.5894796 72.571061,20.3344735 71.6685127,19.2664201 C70.764247,18.2000977 69.6513045,17.3674661 68.3279679,16.7667943 C67.00549,16.1678535 65.5267192,15.866652 63.8968082,15.866652 Z" id="Fill-14" fill="url(#linearGradient-1)"></path>
                <path d="M289,42.9995598 C289,45.7612466 286.761049,48 284,48 C281.238951,48 279,45.7612466 279,42.9995598 C279,40.2387534 281.238951,38 284,38 C286.761049,38 289,40.2387534 289,42.9995598" id="Fill-17" fill="#22B6F5"></path>
            </g>
        </g>
    </g>
</svg>